<svg version="1.1" id="Layer_1" xmlns="http://www.w3.org/2000/svg" xmlns:xlink="http://www.w3.org/1999/xlink" x="0px" y="0px"
	 width="100%" viewBox="0 0 560 624" enable-background="new 0 0 560 624" xml:space="preserve">
<path opacity="1.000000" stroke="none" 
	d="
M399.280762,467.262665 
	C440.130707,441.416901 469.057190,406.442902 484.700165,360.851746 
	C495.817535,328.450409 498.044281,295.394073 491.110687,261.871796 
	C481.966156,217.659912 459.638092,181.433441 424.366943,153.168198 
	C402.848480,135.923981 378.659912,124.173897 352.047546,117.198532 
	C326.091095,110.395103 299.847443,109.268997 273.330353,112.898300 
	C225.840012,119.398117 185.568604,140.335281 152.522293,174.720764 
	C129.905746,198.253815 114.069283,225.944183 105.236450,257.615234 
	C97.070755,286.894196 95.451431,316.469055 101.567856,346.085815 
	C111.474976,394.057648 136.431885,432.706726 176.296860,461.456238 
	C196.936722,476.341095 219.635788,486.771759 244.490509,492.412964 
	C244.652878,492.449860 244.812973,492.497437 244.973099,492.543640 
	C252.398911,494.685272 256.201385,499.266541 255.023148,504.630341 
	C253.971863,509.416168 248.529816,513.356506 240.572830,511.417053 
	C213.044434,504.707275 187.599442,493.503876 164.692261,476.848999 
	C130.778107,452.191345 106.305199,420.211426 91.647850,380.868713 
	C85.525345,364.434937 81.839813,347.421844 79.882370,329.979187 
	C77.310066,307.057678 79.158096,284.524323 84.264328,262.085205 
	C93.495659,221.518524 113.295052,186.794662 142.349030,157.397415 
	C165.230896,134.245209 192.070389,116.908493 222.722534,105.528915 
	C247.478241,96.338379 273.007782,91.083260 299.347534,91.035339 
	C322.382263,90.993423 344.961090,94.397186 367.169800,101.338539 
	C408.882599,114.375931 443.114105,137.890335 470.191895,171.936417 
	C491.093445,198.216812 504.768768,228.001602 510.748169,261.024414 
	C514.919800,284.063263 515.153870,307.205414 511.734558,330.576691 
	C507.262299,361.145172 496.583221,389.190765 479.827209,414.817505 
	C448.566986,462.627045 405.270966,494.321533 350.028351,509.423004 
	C329.346802,515.076599 308.306732,517.830566 286.850342,517.161194 
	C284.852875,517.098877 282.847565,517.049194 280.863678,516.831482 
	C272.090424,515.868958 269.223999,512.819519 268.847931,504.072052 
	C268.453247,494.892212 268.990509,485.740387 270.498077,476.697815 
	C271.168610,472.675873 270.163422,470.984863 266.061401,470.242920 
	C242.536606,465.988068 220.509567,457.863068 200.765381,444.123230 
	C168.923248,421.964569 147.586487,392.154938 136.918549,354.943451 
	C127.558052,322.292511 128.434662,289.557587 137.721191,256.961884 
	C139.506302,250.696182 142.588272,245.830978 149.098175,243.445709 
	C154.409042,241.499771 159.009506,243.863358 163.616577,245.355621 
	C195.446243,255.665512 219.026917,276.555267 237.043015,304.068604 
	C250.641022,324.834808 258.831482,347.757141 262.126923,372.394714 
	C262.302856,373.709625 262.626770,375.010010 262.962708,376.295990 
	C263.117920,376.890137 263.468262,377.433319 264.108917,378.818756 
	C269.515503,372.343567 273.023102,365.419006 276.521515,358.552673 
	C282.670990,346.482971 286.704498,333.655060 289.296051,320.376160 
	C290.693634,313.215057 290.369446,312.903625 283.639160,310.099457 
	C247.932541,295.222290 225.968643,268.617676 217.500885,231.104950 
	C212.880936,210.638321 213.893723,190.108093 219.492188,169.805634 
	C220.947327,164.528687 224.268875,161.150162 228.670441,158.521591 
	C232.407730,156.289749 236.037338,156.985229 239.419418,159.428787 
	C250.419846,167.376648 259.913452,176.909698 268.717926,187.188126 
	C288.144257,209.866592 301.668213,235.536499 307.680511,264.881836 
	C309.546448,273.989319 310.697174,283.277435 310.930115,292.608856 
	C311.016937,296.088348 312.339874,297.448273 315.868439,297.997803 
	C328.878937,300.024048 341.612091,297.807159 353.932831,294.571045 
	C380.477448,287.598969 402.238525,272.687866 419.841309,251.683731 
	C420.772888,250.572159 422.152771,249.709198 422.210022,247.897263 
	C420.905792,245.781601 418.472717,245.719543 416.506927,245.588608 
	C400.656189,244.532806 384.871429,244.496094 369.632751,250.049454 
	C366.487854,251.195541 363.542664,252.596634 360.855042,254.683502 
	C356.520233,258.049377 351.780914,258.035492 347.974670,255.003387 
	C344.459320,252.203003 342.944611,246.947830 345.232849,242.413025 
	C353.260712,226.503677 355.762512,209.624893 354.820557,192.050812 
	C354.436829,184.891327 353.244141,177.849884 351.405273,170.938171 
	C350.137939,166.174774 348.367828,165.308243 344.225037,167.557541 
	C331.108124,174.679291 319.799652,183.653290 313.536713,197.815079 
	C310.728180,204.165649 305.999420,206.389038 300.877045,204.279648 
	C295.497681,202.064407 293.393127,196.978561 295.858490,190.486008 
	C298.839569,182.635468 303.508453,175.793106 309.445251,169.772568 
	C319.513580,159.562210 330.960449,151.743652 344.384705,146.304199 
	C355.531158,141.787689 362.685760,148.411331 366.586761,157.045486 
	C370.232147,165.113815 372.012756,173.768127 373.222626,182.555878 
	C375.311951,197.731339 374.200562,212.758179 371.423859,227.451233 
	C372.760071,229.198700 374.085968,228.322952 375.317352,228.086365 
	C390.799744,225.111877 406.314606,223.870743 421.992065,226.659485 
	C427.640320,227.664215 433.003662,229.321640 437.956604,232.176956 
	C445.926239,236.771332 448.331543,245.408661 443.261780,253.059006 
	C430.719727,271.985168 414.279999,286.837524 394.764099,298.362091 
	C383.506500,305.009918 371.581848,310.200958 358.960602,313.425354 
	C346.058624,316.721497 332.929047,319.029266 319.465881,317.650269 
	C309.814789,316.661682 310.016815,316.720428 307.950195,326.236633 
	C304.149292,343.738312 297.858276,360.336456 289.097260,375.979187 
	C282.472656,387.807343 274.263947,398.492218 265.402008,408.695129 
	C263.994690,410.315430 262.433960,411.905243 260.662994,413.088257 
	C254.609436,417.132141 247.449890,414.610077 244.842331,407.664429 
	C243.824112,404.952209 243.789795,402.136261 243.898148,399.283539 
	C245.154602,366.207947 236.329117,336.035248 217.215622,309.052063 
	C202.941132,288.900299 184.799240,273.452515 161.263306,264.814850 
	C156.860168,263.198914 155.386475,264.486816 154.395905,268.588013 
	C148.112854,294.601227 147.231537,320.546478 154.394333,346.585022 
	C165.806290,388.070282 190.384644,418.807983 228.813919,438.278442 
	C241.803558,444.859711 255.657257,448.880859 269.983368,451.430634 
	C274.140533,452.170532 276.084106,450.651459 277.350922,446.846558 
	C292.696198,400.757050 322.333649,366.982971 365.616089,345.183105 
	C385.462860,335.187012 406.592926,329.636017 428.767059,327.888092 
	C434.743469,327.416992 440.684143,326.594208 446.697937,326.849823 
	C453.352051,327.132721 459.196777,331.016815 461.260345,336.408661 
	C462.131866,338.685730 462.230896,340.847809 461.485870,343.214264 
	C446.388733,391.170197 417.454681,427.775818 372.934875,451.764404 
	C348.571838,464.891937 322.596832,471.650940 294.990570,472.256287 
	C292.004639,472.321777 290.372192,473.198273 289.909424,476.345123 
	C289.084808,481.952484 288.345215,487.547394 288.175659,493.226593 
	C288.072174,496.692841 289.494995,497.879730 292.896027,497.937317 
	C302.427734,498.098633 311.852448,497.203949 321.266541,495.846558 
	C339.154846,493.267365 356.318573,488.167419 372.863434,480.995422 
	C381.867249,477.092346 390.621063,472.649139 399.280762,467.262665 
M301.300751,452.419312 
	C318.103882,451.640320 334.237091,447.766357 349.721893,441.368683 
	C381.829102,428.103210 406.998810,406.501862 425.387604,377.098877 
	C431.090759,367.979736 436.125336,358.438477 439.365814,348.013092 
	C437.468933,346.808746 435.779816,347.109711 434.164032,347.139496 
	C423.473694,347.336395 412.919312,348.789124 402.686035,351.783600 
	C351.890900,366.647369 316.418457,398.412231 297.141663,447.943726 
	C295.719025,451.599335 296.604767,453.009735 301.300751,452.419312 
M270.578033,280.909210 
	C276.694183,285.076447 282.713684,289.435364 290.086304,291.334167 
	C297.095520,266.755859 260.982910,193.798630 236.888596,183.210785 
	C236.646469,183.597778 236.316650,183.970047 236.162918,184.404617 
	C235.886475,185.186066 235.626038,185.992599 235.514038,186.809921 
	C233.515503,201.393967 233.231003,215.875656 237.017014,230.310394 
	C242.389236,250.792770 252.827911,267.822754 270.578033,280.909210 
z"/>
<path opacity="1.000000" stroke="none" 
	d="
M462.328461,87.870804 
	C473.512146,84.587791 484.710358,89.136658 489.444794,98.530182 
	C492.740479,105.069183 491.288666,111.170265 484.957855,114.868027 
	C482.013977,116.587524 481.563293,117.998558 482.748016,121.130547 
	C484.444641,125.615646 485.537354,130.352982 486.598999,135.047958 
	C487.715485,139.985397 485.690643,143.761444 481.862885,144.571320 
	C478.296021,145.326004 475.031342,142.470047 473.905853,137.328674 
	C472.224823,129.649658 469.994690,122.214607 465.284241,115.760429 
	C464.816650,115.119743 464.271271,114.535797 463.765564,113.929733 
	C461.315552,114.997765 461.112701,117.523071 459.588623,119.009872 
	C457.618195,120.932083 455.400696,121.933327 452.842712,120.624222 
	C450.118530,119.230057 447.976624,116.618683 449.177917,113.737244 
	C452.855682,104.915985 456.778259,96.168037 462.328461,87.870804 
M474.362427,104.510681 
	C475.591919,104.475601 477.504364,104.912735 476.737640,102.748375 
	C476.108978,100.973770 474.305786,100.129280 472.364471,100.151756 
	C470.302185,100.175629 469.076019,101.111229 469.237305,103.535744 
	C470.839386,103.839188 472.265900,104.109375 474.362427,104.510681 
z"/>
<path opacity="1.000000" stroke="none" 
	d="
M276.513672,48.624931 
	C273.325500,51.979523 269.331696,52.507984 265.422852,53.196941 
	C260.847168,54.003422 256.246765,54.671562 251.677002,55.508499 
	C250.426300,55.737560 249.003174,56.002483 248.552307,57.678261 
	C249.406494,60.295639 251.561752,59.845322 253.471268,59.495785 
	C256.245758,58.987907 258.965851,58.190159 261.722534,57.576187 
	C265.594879,56.713741 269.856842,55.077049 272.372589,59.734497 
	C274.803375,64.234657 271.270264,66.688210 268.289368,68.993950 
	C268.478882,70.473366 269.657806,70.424973 270.514130,70.789642 
	C273.170258,71.920746 274.281799,74.087135 274.012360,76.778160 
	C273.712036,79.778297 271.676971,81.898209 268.826172,82.022499 
	C262.362976,82.304268 255.813629,82.583382 249.419571,81.835419 
	C244.570450,81.268173 241.429214,77.592361 239.509140,72.930283 
	C237.172638,67.257103 236.547012,61.011513 233.325043,55.617516 
	C231.943054,53.303852 233.379272,51.080345 235.227081,49.447510 
	C238.494812,46.559959 242.006866,44.240696 246.545120,43.597202 
	C254.408493,42.482235 262.188080,40.653072 270.076965,39.881603 
	C276.034943,39.298962 277.957184,42.237690 276.513672,48.624931 
z"/>
<path opacity="1.000000" stroke="none" 
	d="
M125.868301,508.984619 
	C126.068207,496.096832 140.768997,484.299316 153.325684,487.701050 
	C157.019409,488.701721 159.459473,490.962067 160.721649,494.465607 
	C161.645157,497.029022 161.251938,499.433502 158.973419,501.207062 
	C156.882111,502.834869 154.668045,502.773315 152.471191,501.381104 
	C150.113678,499.887054 147.794235,497.971680 144.866943,501.198517 
	C149.004807,503.632538 153.311661,505.404419 156.838593,508.477753 
	C162.854004,513.719604 163.978287,519.369202 160.046112,526.215149 
	C158.803726,528.378052 157.496796,530.510010 156.108246,532.581543 
	C154.166702,535.478210 151.871841,537.982910 147.912872,536.502686 
	C144.123795,535.085938 143.176041,532.154663 144.142853,528.402710 
	C144.256882,527.960144 144.095947,527.446655 144.055588,526.867310 
	C134.607986,524.557800 126.682068,520.651184 125.868301,508.984619 
z"/>
<path opacity="1.000000" stroke="none" 
	d="
M287.259277,70.623184 
	C282.727600,60.900433 280.777771,51.132263 283.202576,40.874500 
	C284.201660,36.648094 288.284637,34.945602 292.242920,37.104828 
	C296.031097,39.171253 299.560181,41.707481 303.252014,43.957008 
	C307.394775,46.481297 311.017395,46.721207 314.756165,42.630119 
	C319.147369,37.825100 325.306671,39.303062 327.141876,45.538372 
	C329.395996,53.196854 330.225800,61.181137 331.037384,69.106621 
	C331.340546,72.066841 329.950165,74.766663 326.632568,75.523857 
	C323.382690,76.265602 321.193909,74.502487 319.720367,71.837547 
	C318.002747,68.731171 317.398346,65.268898 316.911255,61.794479 
	C316.678162,60.131840 316.470581,57.818317 314.294434,58.349064 
	C307.654816,59.968391 301.930267,57.159290 295.794464,54.848541 
	C295.004486,58.293491 296.526855,60.963810 297.345306,63.737019 
	C298.311066,67.009338 297.407532,69.747322 294.730896,71.692375 
	C292.232544,73.507904 289.715576,73.049377 287.259277,70.623184 
z"/>
<path opacity="1.000000" stroke="none" 
	d="
M363.277100,56.224186 
	C363.545013,55.191444 363.718781,54.541569 363.763641,53.882912 
	C364.031128,49.957142 365.238800,46.437859 369.485748,45.522602 
	C374.099304,44.528355 375.724579,48.177315 377.473206,51.490997 
	C380.157837,56.578392 382.988556,61.588684 385.630341,66.400497 
	C387.814026,66.513374 388.324463,65.112419 389.072418,64.086098 
	C390.735260,61.804310 392.277588,59.433708 393.965912,57.171612 
	C397.773865,52.069561 401.840179,50.743439 405.222717,53.417244 
	C408.948029,56.362019 408.705597,59.419216 404.497528,65.084396 
	C400.440521,70.546127 396.739227,76.290794 392.435059,81.545296 
	C387.216278,87.916321 381.456024,87.080811 377.578094,79.751122 
	C376.058685,76.879349 374.670380,73.938232 373.148010,70.879410 
	C371.189087,72.638329 371.621307,74.850937 370.859711,76.604614 
	C369.373718,80.026352 367.065125,82.998558 362.957184,81.805840 
	C359.086243,80.681938 357.718109,77.324081 358.668274,73.413170 
	C360.036560,67.781410 361.627472,62.203747 363.277100,56.224186 
z"/>
<path opacity="1.000000" stroke="none" 
	d="
M114.546906,109.249985 
	C110.880196,104.673576 110.867538,101.064865 114.907936,97.783981 
	C122.818642,91.360336 132.007996,88.114227 142.205429,89.113251 
	C152.073395,90.080009 155.936493,99.390236 150.158890,107.472496 
	C147.823105,110.740013 145.015411,113.581100 141.785934,115.969307 
	C139.182449,117.894600 138.583694,119.987274 140.650436,122.727303 
	C143.096069,125.969635 143.359802,129.326324 139.836212,131.898926 
	C136.000931,134.699097 132.798264,132.717300 130.387711,129.578445 
	C125.229828,122.862144 120.639816,115.708122 114.546906,109.249985 
M132.958374,106.487808 
	C134.077103,105.163864 135.973785,104.558311 136.735916,102.242943 
	C134.596359,102.127296 132.707642,102.087204 130.904327,102.908012 
	C129.572449,103.514244 127.963722,104.169128 128.814560,106.113434 
	C129.578384,107.858910 130.934875,107.955597 132.958374,106.487808 
z"/>
<path opacity="1.000000" stroke="none" 
	d="
M297.607727,562.157043 
	C294.516571,554.939331 293.173370,547.804016 294.234924,540.357849 
	C295.027435,534.798645 299.223938,531.959961 303.128662,534.131653 
	C305.415253,535.403381 306.432709,537.431335 306.268677,539.941589 
	C306.005249,543.972534 306.739594,547.895020 307.193665,551.859619 
	C307.451599,554.111816 307.710815,556.677917 310.086761,557.119141 
	C312.893188,557.640381 314.674408,555.284119 315.581940,552.920410 
	C317.189789,548.732605 318.377350,544.385498 319.829346,540.135254 
	C320.942566,536.876831 322.951233,534.599121 326.740753,534.814941 
	C330.029327,535.002075 332.081543,536.828369 332.372620,540.076904 
	C333.115173,548.364319 334.201935,556.572815 336.113129,564.693726 
	C336.962189,568.301575 335.473236,571.340637 331.670593,572.571167 
	C328.042419,573.745300 326.144653,571.295959 324.430939,568.711365 
	C323.887573,567.891907 323.445282,567.005371 322.690735,565.683533 
	C313.558533,571.258301 304.708038,573.329712 297.607727,562.157043 
z"/>
<path opacity="1.000000" stroke="none" 
	d="
M466.212158,484.762878 
	C463.896240,482.342438 462.346710,479.832184 460.673401,477.358429 
	C456.400848,471.042084 459.979797,464.667847 464.760590,461.424835 
	C470.748779,457.362823 477.156738,454.218353 484.749908,455.807587 
	C494.895905,457.931061 498.869507,466.744019 493.922791,475.914856 
	C492.322388,478.881836 490.186920,481.534210 487.604218,483.542358 
	C484.170868,486.211975 484.377930,488.526428 487.197357,491.263214 
	C487.551636,491.607086 487.905304,491.992493 488.126221,492.426392 
	C489.760284,495.635895 490.224792,498.958527 487.271881,501.522156 
	C484.113953,504.263733 481.030090,502.821228 478.450897,500.279694 
	C477.163940,499.011597 476.196014,497.421448 475.071075,495.986969 
	C472.203125,492.329834 469.328033,488.678284 466.212158,484.762878 
M477.088776,475.527008 
	C479.692749,474.074768 481.967834,472.361877 482.524963,469.014038 
	C480.247620,467.456085 478.243713,468.218994 476.303894,469.065216 
	C474.692169,469.768250 472.446228,470.264374 472.620239,472.461731 
	C472.769806,474.350220 474.303802,475.574432 477.088776,475.527008 
z"/>
<path opacity="1.000000" stroke="none" 
	d="
M440.011108,103.691460 
	C439.575409,105.358116 439.242096,106.646820 438.767212,107.881065 
	C437.848236,110.269455 436.129486,111.853264 433.508270,111.697540 
	C430.573547,111.523186 428.450073,109.821419 427.851898,106.920502 
	C427.286011,104.176308 427.159180,101.336601 426.914307,98.532356 
	C426.547028,94.326172 421.832520,89.750481 417.772064,89.634056 
	C416.009918,89.583534 415.751404,90.920303 415.063324,92.050217 
	C412.374512,96.465828 407.732086,97.873215 404.152802,95.476288 
	C400.449524,92.996353 399.856995,88.092957 403.635254,84.185555 
	C409.627167,77.988869 415.908691,72.018082 422.520874,66.494194 
	C427.020386,62.735260 435.009491,65.914818 436.582184,71.665840 
	C437.321777,74.370331 437.817841,77.192749 437.988251,79.988304 
	C438.192230,83.334106 439.234009,85.798439 442.020050,88.008553 
	C445.293976,90.605675 445.232574,94.643929 442.050293,97.497932 
	C440.096466,99.250153 440.085144,101.147873 440.011108,103.691460 
z"/>
<path opacity="1.000000" stroke="none" 
	d="
M426.085571,500.855988 
	C430.424988,508.376343 434.553558,515.576721 438.701263,522.765991 
	C441.375946,527.402161 440.972931,531.132263 437.340546,533.177124 
	C432.972870,535.635986 430.526062,532.580078 428.256012,529.619141 
	C424.311035,524.473450 424.362213,524.434204 419.036957,528.225708 
	C418.679382,530.209717 420.344177,531.534668 420.774200,533.258606 
	C421.657745,536.800598 422.074677,540.398071 418.013977,542.303833 
	C414.091217,544.144897 411.069763,542.323730 409.330597,538.862488 
	C405.310455,530.861511 401.492096,522.754272 397.796967,514.597290 
	C396.411011,511.537842 397.207977,508.562012 400.148712,506.747131 
	C403.271759,504.819733 405.898926,506.298645 408.047424,508.731781 
	C408.916260,509.715607 409.646393,510.871918 410.222015,512.055542 
	C412.179901,516.081360 414.665527,516.584778 418.081879,513.263672 
	C417.268005,511.147736 416.425049,509.024414 415.633362,506.882172 
	C414.394806,503.530762 414.893585,500.493286 418.071228,498.621490 
	C421.066345,496.857208 423.833832,497.617676 426.085571,500.855988 
z"/>
<path opacity="1.000000" stroke="none" 
	d="
M83.669525,445.534851 
	C87.586334,444.011597 91.054329,442.218048 94.740097,441.361267 
	C100.919762,439.924774 104.009819,444.034393 102.256081,450.108917 
	C100.279335,456.955841 98.737854,463.946564 97.392647,470.948822 
	C96.847771,473.785095 95.850128,476.385864 94.792870,478.980316 
	C93.547447,482.036560 91.237122,483.979095 87.740990,483.102722 
	C84.532516,482.298492 83.417633,479.618866 83.281517,476.600525 
	C82.913063,468.429657 77.238495,463.911926 69.151009,465.447784 
	C66.112549,466.024841 63.820358,464.949921 62.801907,462.014709 
	C61.536045,458.366547 62.694290,455.254761 66.101288,453.555847 
	C71.745193,450.741547 77.570007,448.290039 83.669525,445.534851 
z"/>
<path opacity="1.000000" stroke="none" 
	d="
M208.372650,540.621216 
	C203.998169,538.023254 200.665512,535.152039 201.558304,529.743408 
	C202.548752,523.743225 207.137527,521.347046 212.140213,519.629272 
	C216.866257,518.006409 221.467667,518.559143 225.148956,522.184570 
	C228.872360,525.851501 227.604675,530.256287 221.769348,534.058655 
	C223.453964,537.690918 226.303421,540.778748 226.878250,545.084229 
	C227.935730,553.004944 223.339081,558.907593 215.381271,559.262817 
	C209.671341,559.517822 204.099197,558.933167 198.638611,557.163269 
	C196.312683,556.409424 194.425537,555.167664 193.077820,553.172241 
	C191.234772,550.443542 191.644821,547.808350 193.688522,545.371704 
	C195.827850,542.821045 198.462799,542.417053 201.284546,544.030457 
	C204.985825,546.146729 208.795151,547.040833 213.076874,546.065002 
	C212.951981,542.823730 210.552658,542.049011 208.372650,540.621216 
z"/>
<path opacity="1.000000" stroke="none" 
	d="
M273.106934,563.975586 
	C272.273956,568.407043 270.108490,571.532776 265.721802,570.772644 
	C261.450928,570.032532 260.107330,566.196594 260.396088,562.292175 
	C260.972565,554.497742 261.850189,546.721985 262.763519,538.957397 
	C263.202850,535.222717 265.252808,532.619324 269.299377,532.842285 
	C273.502686,533.073914 274.435089,536.298096 275.007721,539.835388 
	C275.401428,542.267700 272.986145,545.009949 275.673462,547.260315 
	C278.605377,546.368408 277.596680,544.018494 277.827789,542.214661 
	C278.310364,538.447876 278.757446,534.673767 283.880402,534.685730 
	C287.919861,534.695129 290.035187,537.312744 290.109009,542.633240 
	C290.207733,549.750061 290.785828,556.852539 290.265198,563.992188 
	C289.956909,568.219543 288.997253,571.719055 284.300354,572.455383 
	C280.781586,573.007019 277.755096,569.283447 277.352264,564.242004 
	C277.222290,562.615601 277.834412,560.608215 275.364197,560.437256 
	C273.208466,560.288208 273.238892,562.079529 273.106934,563.975586 
z"/>
<path opacity="1.000000" stroke="none" 
	d="
M393.043365,550.357056 
	C389.637238,552.197571 386.341370,552.483337 382.983185,552.102661 
	C378.839325,551.633057 375.367828,548.050537 375.879211,544.516296 
	C376.512360,540.140747 379.542236,538.965881 383.564667,539.490417 
	C384.167053,539.568909 384.801819,539.399109 385.476715,538.944641 
	C382.759735,537.897888 379.820282,538.033325 377.089478,537.070435 
	C372.821747,535.565674 368.887695,533.778137 368.012909,528.843140 
	C367.004333,523.153442 369.460327,518.550476 374.049225,515.547485 
	C378.050201,512.929321 382.463013,511.110107 387.657104,513.000610 
	C396.076843,516.065125 397.164246,519.692566 390.948242,526.225647 
	C392.647888,526.991760 394.323669,527.610168 395.868073,528.465698 
	C405.045441,533.549316 405.329620,542.918274 396.494507,548.609436 
	C395.523407,549.234985 394.446747,549.696594 393.043365,550.357056 
z"/>
<path opacity="1.000000" stroke="none" 
	d="
M216.645874,95.762344 
	C212.121536,97.245323 208.160767,96.597153 206.714508,92.270721 
	C203.750244,83.403282 213.332672,84.678062 216.938019,80.568275 
	C214.461502,78.489944 211.329224,79.026764 208.637589,78.403526 
	C198.079620,75.958885 195.313873,68.242035 202.462646,60.113510 
	C206.974762,54.982979 212.626083,52.074089 219.711075,53.152710 
	C223.498566,53.729321 226.477722,55.418686 226.251602,59.858406 
	C226.029922,64.210266 222.940414,65.156616 219.274414,65.229240 
	C218.648438,65.241638 218.026001,65.432884 215.994324,65.786530 
	C218.915741,66.919479 220.652557,67.570251 222.372177,68.263641 
	C232.894394,72.506500 234.521576,83.669365 225.628326,90.714233 
	C223.009384,92.788849 220.076004,94.347229 216.645874,95.762344 
z"/>
<path opacity="1.000000" stroke="none" 
	d="
M459.568604,516.833130 
	C452.053314,521.185242 445.060577,519.891052 438.953400,512.634033 
	C434.652496,507.523346 431.919189,501.457275 434.245514,494.648560 
	C436.373749,488.419678 440.186310,483.480621 447.372375,482.368683 
	C455.671844,481.084473 465.813812,489.305573 466.274506,497.658264 
	C466.671112,504.849335 466.223969,511.709198 459.568604,516.833130 
M451.940460,497.692169 
	C450.976959,496.674377 450.383087,494.806000 448.428802,495.882111 
	C447.142609,496.590332 446.768311,497.959290 446.748169,499.321167 
	C446.710602,501.858185 447.967316,503.780426 449.992432,505.177460 
	C450.898254,505.802338 451.974121,505.775757 452.625092,504.760925 
	C453.902954,502.768921 454.030029,500.707458 452.633148,498.678009 
	C452.538696,498.540833 452.451111,498.398956 451.940460,497.692169 
z"/>
<path opacity="1.000000" stroke="none" 
	d="
M126.806076,490.344971 
	C125.920738,499.057953 121.369965,503.190918 113.154655,503.360870 
	C106.214325,503.504425 100.349800,501.288940 96.359001,495.461853 
	C94.032684,492.065125 94.160278,488.575165 97.606346,485.697937 
	C101.133118,482.753296 103.683113,484.732880 106.146599,487.332123 
	C107.975731,489.262085 109.805771,491.235352 113.187546,490.348480 
	C113.788040,487.458801 111.581596,485.822205 110.233002,483.953583 
	C107.232170,479.795624 105.446510,475.358154 107.904602,470.491882 
	C109.946938,466.448730 113.820457,464.578125 118.258064,464.867035 
	C123.822464,465.229370 128.585678,467.427490 131.186630,472.786835 
	C133.248947,477.036255 131.831558,479.429901 124.988693,483.372162 
	C125.563591,485.523346 126.156731,487.742798 126.806076,490.344971 
z"/>
<path opacity="1.000000" stroke="none" 
	d="
M339.952637,548.864136 
	C338.946869,544.252625 337.969666,540.057556 337.176208,535.828125 
	C336.449402,531.954102 338.195404,529.225281 341.850433,528.158569 
	C345.701172,527.034729 347.903595,529.438965 348.866913,532.769592 
	C350.247040,537.541504 351.278656,542.415894 352.404541,547.259216 
	C353.698456,552.825378 354.985931,553.583130 360.389099,551.887573 
	C363.079468,551.043335 365.738556,549.937866 368.498169,549.516724 
	C371.950836,548.989929 374.849670,550.321960 375.795868,553.979919 
	C376.680847,557.401489 374.946564,559.930115 371.883759,561.140320 
	C367.574036,562.842957 363.257416,564.559937 358.666901,565.519287 
	C349.705780,567.391907 345.313385,565.105164 342.127441,556.431396 
	C341.272522,554.103821 340.741211,551.657471 339.952637,548.864136 
z"/>
<path opacity="1.000000" stroke="none" 
	d="
M240.238434,563.922852 
	C226.055847,554.176025 232.545731,534.692749 245.207825,529.776611 
	C249.335449,528.174011 253.079956,528.360474 255.837463,532.346191 
	C258.652069,536.414429 256.616364,541.689392 251.675827,542.073120 
	C246.670227,542.461914 244.637436,545.251038 244.923462,549.498047 
	C245.195145,553.532043 248.417099,554.708801 252.225586,554.495056 
	C255.707413,554.299561 258.144257,556.012573 258.634247,559.453308 
	C259.146698,563.051819 257.203766,565.574646 253.790558,566.645020 
	C248.987045,568.151367 244.593155,566.912048 240.238434,563.922852 
z"/>
<path opacity="1.000000" stroke="none" 
	d="
M343.158539,80.255661 
	C338.541016,79.147850 337.965759,75.584076 338.200714,72.322960 
	C338.833344,63.542542 339.863159,54.785061 340.960205,46.046715 
	C341.371704,42.768982 343.380524,40.385757 346.953796,40.520508 
	C350.213043,40.643421 352.220551,42.769165 352.340485,46.005646 
	C352.710419,55.986130 352.348572,65.947639 349.889771,75.683037 
	C349.133698,78.676765 346.866791,80.391991 343.158539,80.255661 
z"/>
<path opacity="1.000000" stroke="none" 
	d="
M178.211182,94.343048 
	C173.541473,96.212608 169.246841,98.008911 164.872284,99.583023 
	C161.597107,100.761536 158.827698,99.719467 157.352158,96.576530 
	C155.938202,93.564789 157.111862,90.686546 159.794327,89.231621 
	C165.763428,85.994064 171.909088,83.047180 178.139267,80.342186 
	C180.813919,79.180916 183.012772,80.972878 184.378174,83.255211 
	C185.990189,85.949738 185.709015,88.639465 183.624481,91.083946 
	C182.266174,92.676781 180.291962,93.225975 178.211182,94.343048 
z"/>
</svg>