<?xml version="1.0" standalone="no"?>
<!DOCTYPE svg PUBLIC "-//W3C//DTD SVG 20010904//EN"
 "http://www.w3.org/TR/2001/REC-SVG-20010904/DTD/svg10.dtd">
<svg version="1.0" xmlns="http://www.w3.org/2000/svg"
 width="512.000000pt" height="512.000000pt" viewBox="0 0 512.000000 512.000000"
 preserveAspectRatio="xMidYMid meet">
<metadata>
Created by potrace 1.16, written by Peter Selinger 2001-2019
</metadata>
<g transform="translate(0.000000,512.000000) scale(0.100000,-0.100000)"
fill="#363636" stroke="none">
<path d="M511 5101 c-88 -33 -140 -74 -294 -230 -185 -187 -209 -231 -215
-388 -5 -110 8 -168 55 -253 16 -29 322 -342 837 -857 l811 -813 -811 -813
c-505 -505 -821 -829 -837 -857 -44 -78 -60 -152 -55 -259 3 -83 8 -105 37
-166 29 -60 57 -94 195 -231 136 -137 172 -167 231 -195 68 -33 73 -34 195
-34 213 0 127 -71 1083 884 l817 816 813 -811 c515 -515 828 -821 857 -837 85
-47 143 -60 253 -55 90 3 110 7 172 36 60 29 92 55 231 195 135 136 167 173
195 232 33 68 34 73 34 195 0 213 71 127 -884 1082 l-816 818 816 817 c955
956 884 870 884 1083 0 122 -1 127 -34 195 -28 59 -59 95 -195 231 -137 138
-171 166 -231 195 -61 29 -83 34 -166 37 -107 5 -181 -11 -259 -55 -28 -16
-352 -332 -857 -837 l-813 -811 -817 816 c-946 945 -869 881 -1068 886 -90 3
-120 0 -164 -16z"/>
</g>
</svg>
