<?xml version="1.0" standalone="no"?>
<!DOCTYPE svg PUBLIC "-//W3C//DTD SVG 20010904//EN"
 "http://www.w3.org/TR/2001/REC-SVG-20010904/DTD/svg10.dtd">
<svg version="1.0" xmlns="http://www.w3.org/2000/svg"
 width="512.000000pt" height="512.000000pt" viewBox="0 0 512.000000 512.000000"
 preserveAspectRatio="xMidYMid meet">
<metadata>
Created by potrace 1.16, written by Peter Selinger 2001-2019
</metadata>
<g transform="translate(0.000000,512.000000) scale(0.100000,-0.100000)"
fill="#42424a" stroke="none">
<path d="M2730 5100 c-449 -69 -839 -266 -1156 -584 -400 -402 -607 -896 -608
-1451 0 -348 71 -638 235 -960 38 -74 69 -143 69 -152 0 -9 -254 -271 -563
-582 -310 -312 -578 -587 -596 -614 -85 -126 -116 -227 -109 -358 6 -115 36
-179 127 -270 91 -91 155 -121 270 -127 131 -7 232 24 358 109 27 18 302 286
614 596 311 309 573 563 582 563 9 0 78 -31 152 -69 322 -164 612 -235 960
-235 555 1 1049 208 1451 608 396 395 604 900 604 1468 0 568 -209 1077 -605
1473 -324 325 -717 520 -1188 589 -147 22 -443 20 -597 -4z m525 -544 c340
-53 601 -180 844 -411 497 -472 615 -1226 286 -1831 -169 -309 -458 -565 -787
-695 -270 -106 -624 -131 -903 -63 -286 70 -526 205 -730 409 -236 236 -384
531 -435 865 -16 106 -14 327 4 445 99 654 622 1177 1279 1280 111 17 332 18
442 1z"/>
<path d="M2940 4279 c-454 -72 -842 -360 -1029 -764 -57 -124 -51 -202 21
-281 49 -53 123 -80 191 -69 84 14 132 55 184 158 118 235 286 387 527 477
184 69 432 67 624 -6 183 -69 336 18 336 191 0 65 -18 110 -62 157 -42 45
-207 102 -387 134 -88 15 -316 17 -405 3z"/>
</g>
</svg>
