<svg version="1.1" id="Layer_1" xmlns="http://www.w3.org/2000/svg" xmlns:xlink="http://www.w3.org/1999/xlink" x="0px"
	y="0px" width="100%" viewBox="0 0 560 624" enable-background="new 0 0 200 200" xml:space="preserve">
	<path fill="#00000" opacity="1.000000" stroke="none" d="
M399.280762,467.262665 
	C440.130707,441.416901 469.057190,406.442902 484.700165,360.851746 
	C495.817535,328.450409 498.044281,295.394073 491.110687,261.871796 
	C481.966156,217.659912 459.638092,181.433441 424.366943,153.168198 
	C402.848480,135.923981 378.659912,124.173897 352.047546,117.198532 
	C326.091095,110.395103 299.847443,109.268997 273.330353,112.898300 
	C225.840012,119.398117 185.568604,140.335281 152.522293,174.720764 
	C129.905746,198.253815 114.069283,225.944183 105.236450,257.615234 
	C97.070755,286.894196 95.451431,316.469055 101.567856,346.085815 
	C111.474976,394.057648 136.431885,432.706726 176.296860,461.456238 
	C196.936722,476.341095 219.635788,486.771759 244.490509,492.412964 
	C244.652878,492.449860 244.812973,492.497437 244.973099,492.543640 
	C252.398911,494.685272 256.201385,499.266541 255.023148,504.630341 
	C253.971863,509.416168 248.529816,513.356506 240.572830,511.417053 
	C213.044434,504.707275 187.599442,493.503876 164.692261,476.848999 
	C130.778107,452.191345 106.305199,420.211426 91.647850,380.868713 
	C85.525345,364.434937 81.839813,347.421844 79.882370,329.979187 
	C77.310066,307.057678 79.158096,284.524323 84.264328,262.085205 
	C93.495659,221.518524 113.295052,186.794662 142.349030,157.397415 
	C165.230896,134.245209 192.070389,116.908493 222.722534,105.528915 
	C247.478241,96.338379 273.007782,91.083260 299.347534,91.035339 
	C322.382263,90.993423 344.961090,94.397186 367.169800,101.338539 
	C408.882599,114.375931 443.114105,137.890335 470.191895,171.936417 
	C491.093445,198.216812 504.768768,228.001602 510.748169,261.024414 
	C514.919800,284.063263 515.153870,307.205414 511.734558,330.576691 
	C507.262299,361.145172 496.583221,389.190765 479.827209,414.817505 
	C448.566986,462.627045 405.270966,494.321533 350.028351,509.423004 
	C329.346802,515.076599 308.306732,517.830566 286.850342,517.161194 
	C284.852875,517.098877 282.847565,517.049194 280.863678,516.831482 
	C272.090424,515.868958 269.223999,512.819519 268.847931,504.072052 
	C268.453247,494.892212 268.990509,485.740387 270.498077,476.697815 
	C271.168610,472.675873 270.163422,470.984863 266.061401,470.242920 
	C242.536606,465.988068 220.509567,457.863068 200.765381,444.123230 
	C168.923248,421.964569 147.586487,392.154938 136.918549,354.943451 
	C127.558052,322.292511 128.434662,289.557587 137.721191,256.961884 
	C139.506302,250.696182 142.588272,245.830978 149.098175,243.445709 
	C154.409042,241.499771 159.009506,243.863358 163.616577,245.355621 
	C195.446243,255.665512 219.026917,276.555267 237.043015,304.068604 
	C250.641022,324.834808 258.831482,347.757141 262.126923,372.394714 
	C262.302856,373.709625 262.626770,375.010010 262.962708,376.295990 
	C263.117920,376.890137 263.468262,377.433319 264.108917,378.818756 
	C269.515503,372.343567 273.023102,365.419006 276.521515,358.552673 
	C282.670990,346.482971 286.704498,333.655060 289.296051,320.376160 
	C290.693634,313.215057 290.369446,312.903625 283.639160,310.099457 
	C247.932541,295.222290 225.968643,268.617676 217.500885,231.104950 
	C212.880936,210.638321 213.893723,190.108093 219.492188,169.805634 
	C220.947327,164.528687 224.268875,161.150162 228.670441,158.521591 
	C232.407730,156.289749 236.037338,156.985229 239.419418,159.428787 
	C250.419846,167.376648 259.913452,176.909698 268.717926,187.188126 
	C288.144257,209.866592 301.668213,235.536499 307.680511,264.881836 
	C309.546448,273.989319 310.697174,283.277435 310.930115,292.608856 
	C311.016937,296.088348 312.339874,297.448273 315.868439,297.997803 
	C328.878937,300.024048 341.612091,297.807159 353.932831,294.571045 
	C380.477448,287.598969 402.238525,272.687866 419.841309,251.683731 
	C420.772888,250.572159 422.152771,249.709198 422.210022,247.897263 
	C420.905792,245.781601 418.472717,245.719543 416.506927,245.588608 
	C400.656189,244.532806 384.871429,244.496094 369.632751,250.049454 
	C366.487854,251.195541 363.542664,252.596634 360.855042,254.683502 
	C356.520233,258.049377 351.780914,258.035492 347.974670,255.003387 
	C344.459320,252.203003 342.944611,246.947830 345.232849,242.413025 
	C353.260712,226.503677 355.762512,209.624893 354.820557,192.050812 
	C354.436829,184.891327 353.244141,177.849884 351.405273,170.938171 
	C350.137939,166.174774 348.367828,165.308243 344.225037,167.557541 
	C331.108124,174.679291 319.799652,183.653290 313.536713,197.815079 
	C310.728180,204.165649 305.999420,206.389038 300.877045,204.279648 
	C295.497681,202.064407 293.393127,196.978561 295.858490,190.486008 
	C298.839569,182.635468 303.508453,175.793106 309.445251,169.772568 
	C319.513580,159.562210 330.960449,151.743652 344.384705,146.304199 
	C355.531158,141.787689 362.685760,148.411331 366.586761,157.045486 
	C370.232147,165.113815 372.012756,173.768127 373.222626,182.555878 
	C375.311951,197.731339 374.200562,212.758179 371.423859,227.451233 
	C372.760071,229.198700 374.085968,228.322952 375.317352,228.086365 
	C390.799744,225.111877 406.314606,223.870743 421.992065,226.659485 
	C427.640320,227.664215 433.003662,229.321640 437.956604,232.176956 
	C445.926239,236.771332 448.331543,245.408661 443.261780,253.059006 
	C430.719727,271.985168 414.279999,286.837524 394.764099,298.362091 
	C383.506500,305.009918 371.581848,310.200958 358.960602,313.425354 
	C346.058624,316.721497 332.929047,319.029266 319.465881,317.650269 
	C309.814789,316.661682 310.016815,316.720428 307.950195,326.236633 
	C304.149292,343.738312 297.858276,360.336456 289.097260,375.979187 
	C282.472656,387.807343 274.263947,398.492218 265.402008,408.695129 
	C263.994690,410.315430 262.433960,411.905243 260.662994,413.088257 
	C254.609436,417.132141 247.449890,414.610077 244.842331,407.664429 
	C243.824112,404.952209 243.789795,402.136261 243.898148,399.283539 
	C245.154602,366.207947 236.329117,336.035248 217.215622,309.052063 
	C202.941132,288.900299 184.799240,273.452515 161.263306,264.814850 
	C156.860168,263.198914 155.386475,264.486816 154.395905,268.588013 
	C148.112854,294.601227 147.231537,320.546478 154.394333,346.585022 
	C165.806290,388.070282 190.384644,418.807983 228.813919,438.278442 
	C241.803558,444.859711 255.657257,448.880859 269.983368,451.430634 
	C274.140533,452.170532 276.084106,450.651459 277.350922,446.846558 
	C292.696198,400.757050 322.333649,366.982971 365.616089,345.183105 
	C385.462860,335.187012 406.592926,329.636017 428.767059,327.888092 
	C434.743469,327.416992 440.684143,326.594208 446.697937,326.849823 
	C453.352051,327.132721 459.196777,331.016815 461.260345,336.408661 
	C462.131866,338.685730 462.230896,340.847809 461.485870,343.214264 
	C446.388733,391.170197 417.454681,427.775818 372.934875,451.764404 
	C348.571838,464.891937 322.596832,471.650940 294.990570,472.256287 
	C292.004639,472.321777 290.372192,473.198273 289.909424,476.345123 
	C289.084808,481.952484 288.345215,487.547394 288.175659,493.226593 
	C288.072174,496.692841 289.494995,497.879730 292.896027,497.937317 
	C302.427734,498.098633 311.852448,497.203949 321.266541,495.846558 
	C339.154846,493.267365 356.318573,488.167419 372.863434,480.995422 
	C381.867249,477.092346 390.621063,472.649139 399.280762,467.262665 
M301.300751,452.419312 
	C318.103882,451.640320 334.237091,447.766357 349.721893,441.368683 
	C381.829102,428.103210 406.998810,406.501862 425.387604,377.098877 
	C431.090759,367.979736 436.125336,358.438477 439.365814,348.013092 
	C437.468933,346.808746 435.779816,347.109711 434.164032,347.139496 
	C423.473694,347.336395 412.919312,348.789124 402.686035,351.783600 
	C351.890900,366.647369 316.418457,398.412231 297.141663,447.943726 
	C295.719025,451.599335 296.604767,453.009735 301.300751,452.419312 
M270.578033,280.909210 
	C276.694183,285.076447 282.713684,289.435364 290.086304,291.334167 
	C297.095520,266.755859 260.982910,193.798630 236.888596,183.210785 
	C236.646469,183.597778 236.316650,183.970047 236.162918,184.404617 
	C235.886475,185.186066 235.626038,185.992599 235.514038,186.809921 
	C233.515503,201.393967 233.231003,215.875656 237.017014,230.310394 
	C242.389236,250.792770 252.827911,267.822754 270.578033,280.909210 
z" />
</svg>